<svg width="97" height="97" xmlns="http://www.w3.org/2000/svg" xmlns:xlink="http://www.w3.org/1999/xlink" xml:space="preserve" overflow="hidden"><g transform="translate(-48 -289)"><g><g><g><g><path d="M59 324 59 303 65.7 309.7C72.4 303.7 81.3 300 91 300 112 300 129 317 129 338 129 359 112 376 91 376 80.5 376 71 371.7 64.1 364.9L72.6 356.4C77.3 361.1 83.8 364 91 364 105.3 364 117 352.3 117 338 117 323.7 105.3 312 91 312 84.6 312 78.7 314.3 74.2 318.2L80 324 59 324Z" fill="#FFFFFF" fill-rule="nonzero" fill-opacity="1"/></g></g></g></g></g></svg>